<svg xmlns="http://www.w3.org/2000/svg" width="20" height="20" viewBox="0 0 20 20">
    <g fill="none" fill-rule="evenodd">
        <g>
            <g>
                <g>
                    <g transform="translate(-430 -1633) translate(52 991) translate(0 69) translate(136 565)">
                        <g transform="translate(242 8)">
                            <path fill="#000" fill-rule="nonzero" d="M14 17L2 17 2 5 8 5 8 6 3 6 3 16 13 16 13 14 14 14z"/>
                            <path d="M0 0H20V20H0z"/>
                            <path fill="#000" fill-rule="nonzero" d="M7 12H6v-.5C6 9 8 7 10.5 7h7.2v1h-7.2C8.6 8 7 9.6 7 11.5v.5z"/>
                            <path fill="#000" fill-rule="nonzero" d="M13.9 12.1L13.1 11.4 17 7.5 13.1 3.6 13.9 2.9 18.4 7.5z"/>
                        </g>
                    </g>
                </g>
            </g>
        </g>
    </g>
</svg>
