<svg xmlns="http://www.w3.org/2000/svg" width="24" height="24" viewBox="0 0 24 24">
    <g fill="none" fill-rule="evenodd">
        <g>
            <g>
                <g>
                    <g transform="translate(-272 -1631) translate(52 991) translate(0 69) translate(136 565)">
                        <g>
                            <path d="M0 0H24V24H0z" transform="translate(84 6)"/>
                            <path fill="#000" fill-rule="nonzero" d="M12 2.25c5.385 0 9.75 4.365 9.75 9.75s-4.365 9.75-9.75 9.75S2.25 17.385 2.25 12 6.615 2.25 12 2.25zm0 1.5c-4.556 0-8.25 3.694-8.25 8.25s3.694 8.25 8.25 8.25 8.25-3.694 8.25-8.25S16.556 3.75 12 3.75zm-.192 11.811c.497 0 .9.403.9.9s-.403.9-.9.9-.9-.403-.9-.9.403-.9.9-.9zM14.7 9.262c.002.537-.17 1.06-.487 1.491l-.523.687-1.354 1.79v1.035h-1.2v-1.154l-.003-.036c-.003-.074.006-.148.028-.218l.019-.053.03-.073 2.005-2.648c.185-.232.286-.52.285-.797-.03-.808-.708-1.44-1.533-1.414-.704.003-1.316.475-1.5 1.148l-.018.068-1.17-.266c.28-1.227 1.35-2.107 2.585-2.148l.08-.002c1.47-.048 2.701 1.1 2.756 2.59z" transform="translate(84 6)"/>
                        </g>
                    </g>
                </g>
            </g>
        </g>
    </g>
</svg>
