<svg xmlns="http://www.w3.org/2000/svg" width="97" height="44" viewBox="0 0 97 44">
    <g fill="none" fill-rule="evenodd">
        <g>
            <g>
                <g>
                    <path fill="#000" d="M34.9 14.62c2.716 0 4.355.727 5.928 2.053l-2.09 2.501c-1.165-.962-2.2-1.518-3.946-1.518-2.415 0-4.334 2.117-4.334 4.661v.043c0 2.737 1.897 4.747 4.57 4.747 1.208 0 2.286-.3 3.127-.899V24.07h-3.342v-2.843h6.554v6.5c-1.552 1.304-3.686 2.373-6.446 2.373-4.7 0-7.934-3.271-7.934-7.697v-.043c0-4.255 3.342-7.74 7.912-7.74zm21.508 0c2.846 0 4.55.94 5.95 2.31l-2.112 2.415c-1.164-1.047-2.35-1.689-3.86-1.689-2.543 0-4.376 2.095-4.376 4.661v.043c0 2.566 1.79 4.704 4.377 4.704 1.724 0 2.78-.684 3.967-1.753l2.113 2.116c-1.553 1.647-3.278 2.673-6.188 2.673-4.442 0-7.74-3.4-7.74-7.697v-.043c0-4.255 3.234-7.74 7.87-7.74zm14.682 0c4.657 0 7.998 3.442 7.998 7.697v.043c0 4.255-3.385 7.74-8.041 7.74-4.657 0-7.999-3.442-7.999-7.697v-.043c0-4.255 3.385-7.74 8.042-7.74zm-64.774.042c2.199 0 4.075.685 5.605 1.904l-1.724 2.48c-1.337-.92-2.652-1.476-3.924-1.476-1.272 0-1.94.578-1.94 1.305v.042c0 .984.646 1.305 3.255 1.968 3.061.79 4.786 1.881 4.786 4.49v.043c0 2.971-2.285 4.64-5.54 4.64-2.286 0-4.593-.792-6.404-2.395l1.962-2.331c1.358 1.112 2.781 1.817 4.506 1.817 1.358 0 2.177-.534 2.177-1.41v-.044c0-.833-.517-1.261-3.04-1.902-3.04-.77-5.001-1.604-5.001-4.576v-.043c0-2.715 2.199-4.512 5.282-4.512zm13.259 0c2.199 0 4.074.685 5.605 1.904l-1.725 2.48c-1.336-.92-2.652-1.476-3.924-1.476-1.272 0-1.94.578-1.94 1.305v.042c0 .984.647 1.305 3.256 1.968 3.061.79 4.786 1.881 4.786 4.49v.043c0 2.971-2.286 4.64-5.541 4.64-2.285 0-4.592-.792-6.403-2.395l1.962-2.331c1.358 1.112 2.781 1.817 4.506 1.817 1.358 0 2.177-.534 2.177-1.41v-.044c0-.833-.517-1.261-3.04-1.902-3.04-.77-5.002-1.604-5.002-4.576v-.043c0-2.715 2.2-4.512 5.283-4.512zm26.204 11.616c1.034 0 1.87.83 1.87 1.855s-.836 1.855-1.87 1.855c-1.033 0-1.87-.83-1.87-1.855 0-1.024.837-1.855 1.87-1.855zm38.44-11.401l3.967 6.329 3.967-6.33h3.579v14.967h-3.299v-9.77l-4.247 6.392H88.1l-4.204-6.329v9.707H80.64V14.877h3.579zm-13.172 2.78c-2.674 0-4.528 2.094-4.528 4.66v.043c0 2.566 1.897 4.704 4.57 4.704 2.674 0 4.528-2.095 4.528-4.661v-.043c0-2.566-1.897-4.704-4.57-4.704z" transform="translate(-422 -110) translate(0 96) translate(422 14.5)"/>
                    <path d="M0 0H96.32V43H0z" transform="translate(-422 -110) translate(0 96) translate(422 14.5)"/>
                </g>
            </g>
        </g>
    </g>
</svg>
